<svg width="17" height="16" viewBox="0 0 17 16" fill="none" xmlns="http://www.w3.org/2000/svg">
<g clip-path="url(#clip0_215_555)">
<path d="M15.4183 0.0162201H1.09202C0.725517 0.0162201 0.427734 0.311394 0.427734 0.674685V14.8463C0.427734 15.2096 0.725517 15.5047 1.09202 15.5047H15.3888C15.7553 15.5047 16.0531 15.2096 16.0859 14.8787V0.677929C16.0859 0.314638 15.7848 0.0162201 15.4183 0.0162201ZM14.754 14.2202H1.72358V1.30396H14.7573V14.2202H14.754Z" fill="#F5F5F5" fill-opacity="0.5"/>
<path d="M7.57422 12.2124C7.57422 12.5757 7.872 12.8709 8.2385 12.8709H12.7281C13.0946 12.8709 13.3924 12.5757 13.4252 12.2124V7.7621C13.4252 7.39881 13.1274 7.10364 12.7609 7.10364C12.3944 7.10364 12.0966 7.39881 12.0966 7.7621V11.5507H8.2385C7.872 11.5507 7.57422 11.8491 7.57422 12.2124Z" fill="#F5F5F5" fill-opacity="0.5"/>
<path d="M3.74827 8.42057C4.08205 8.42057 4.37983 8.12539 4.37983 7.7621V3.9735H8.23791C8.60441 3.9735 8.90219 3.67832 8.90219 3.31503C8.90219 2.95174 8.60441 2.65657 8.23791 2.65657H3.74827C3.38177 2.65657 3.08398 2.95174 3.08398 3.31503V7.7621C3.08398 8.12539 3.38504 8.42057 3.74827 8.42057Z" fill="#F5F5F5" fill-opacity="0.5"/>
</g>
<defs>
<clipPath id="clip0_215_555">
<rect width="15.6581" height="15.521" fill="white" transform="translate(0.427734)"/>
</clipPath>
</defs>
</svg>
