<svg width="16" height="19" viewBox="0 0 16 19" fill="none" xmlns="http://www.w3.org/2000/svg">
<g clip-path="url(#clip0_233_15)">
<path d="M7.49999 17.8125H1.00001V1.18753H7.49999C7.776 1.18753 7.99998 0.921507 7.99998 0.593794C7.99998 0.266081 7.77596 6.10352e-05 7.49999 6.10352e-05H0.499986C0.224017 6.10352e-05 0 0.266032 0 0.593794V18.4062C0 18.734 0.224017 19 0.499986 19H7.49995C7.77596 19 7.99994 18.7339 7.99994 18.4062C7.99998 18.0785 7.77596 17.8125 7.49999 17.8125Z" fill="#F5F5F5"/>
<path d="M15.8554 9.08556L12.4054 4.92992C12.2099 4.69539 11.8934 4.69598 11.6984 4.92992C11.5029 5.16386 11.5029 5.54384 11.6984 5.77778L14.2984 8.9098H4.00194C3.72593 8.9098 3.50195 9.17819 3.50195 9.50951C3.50195 9.84083 3.72597 10.1092 4.00194 10.1092H14.2984L11.6984 13.2412C11.5029 13.4758 11.5029 13.8552 11.6984 14.0891C11.8939 14.3236 12.2104 14.3236 12.4054 14.0891L15.8549 9.93346C16.0479 9.70249 16.0499 9.31594 15.8554 9.08556Z" fill="#F5F5F5"/>
</g>
<defs>
<clipPath id="clip0_233_15">
<rect width="16" height="19" fill="white"/>
</clipPath>
</defs>
</svg>
