<svg width="24" height="24" viewBox="0 0 24 24" fill="none" xmlns="http://www.w3.org/2000/svg">
<path d="M5.57143 2C3.59899 2 2 3.59899 2 5.57143V18.4286C2 20.401 3.59899 22 5.57143 22H18.4286C20.401 22 22 20.401 22 18.4286V10.3263C22 9.37913 21.6237 8.47071 20.954 7.80094L16.199 3.04604C15.5293 2.37627 14.6209 2 13.6737 2H5.57143ZM3.42857 5.57143C3.42857 4.38796 4.38796 3.42857 5.57143 3.42857H13.4286V8.42857C13.4286 9.61204 14.388 10.5714 15.5714 10.5714H20.5714V18.4286C20.5714 19.612 19.612 20.5714 18.4286 20.5714H5.57143C4.38796 20.5714 3.42857 19.612 3.42857 18.4286V5.57143ZM20.215 9.14286H15.5714C15.177 9.14286 14.8571 8.82306 14.8571 8.42857V3.78501C14.9757 3.86351 15.0869 3.95419 15.1889 4.0562L19.9439 8.8111C20.0459 8.91311 20.1364 9.02436 20.215 9.14286Z" fill="#F5F5F5"/>
</svg>
