<svg width="24" height="24" viewBox="0 0 24 24" fill="none" xmlns="http://www.w3.org/2000/svg">
<path d="M19.7479 20.5593L14.0096 14.8169C15.1409 13.4602 15.8213 11.7264 15.8213 9.83277C15.8213 5.51266 12.2758 2 7.91475 2C3.55364 2 0 5.51675 0 9.83687C0 14.157 3.54545 17.6696 7.90655 17.6696C9.7592 17.6696 11.4643 17.0343 12.8169 15.9727L18.5757 21.7315C18.9118 22.0676 19.4118 22.0676 19.7479 21.7315C20.084 21.3954 20.084 20.8954 19.7479 20.5593ZM1.6805 9.83687C1.6805 6.44308 4.47587 3.6846 7.90655 3.6846C11.3372 3.6846 14.1326 6.44308 14.1326 9.83687C14.1326 13.2307 11.3372 15.9891 7.90655 15.9891C4.47587 15.9891 1.6805 13.2266 1.6805 9.83687Z" fill="#808080"/>
</svg>
